<svg width="175" height="50" viewBox="0 0 175 50" fill="none" xmlns="http://www.w3.org/2000/svg">
<path d="M76.7422 17.9844H73L72.5547 19.0156C72.4089 19.3594 72.3359 19.6432 72.3359 19.8672C72.3359 20.1641 72.4557 20.3828 72.6953 20.5234C72.8359 20.6068 73.1823 20.6693 73.7344 20.7109V21H70.2109V20.7109C70.5911 20.6536 70.9036 20.4974 71.1484 20.2422C71.3932 19.9818 71.6953 19.4479 72.0547 18.6406L75.8438 10.1875H75.9922L79.8125 18.875C80.1771 19.6979 80.4766 20.2161 80.7109 20.4297C80.888 20.5911 81.138 20.6849 81.4609 20.7109V21H76.3359V20.7109H76.5469C76.9583 20.7109 77.2474 20.6536 77.4141 20.5391C77.5286 20.4557 77.5859 20.3359 77.5859 20.1797C77.5859 20.0859 77.5703 19.9896 77.5391 19.8906C77.5286 19.8438 77.4505 19.6484 77.3047 19.3047L76.7422 17.9844ZM76.4766 17.4062L74.8984 13.7578L73.2734 17.4062H76.4766ZM85.5391 21.2969L83.1797 15.8828C82.8255 15.0651 82.5625 14.5625 82.3906 14.375C82.224 14.1875 82.0208 14.0573 81.7812 13.9844V13.6953H85.6641V13.9844C85.4089 13.9948 85.2292 14.0443 85.125 14.1328C85.0208 14.2214 84.9688 14.3281 84.9688 14.4531C84.9688 14.651 85.099 15.0417 85.3594 15.625L86.6094 18.4844L87.4609 16.2734C87.7682 15.487 87.9219 14.9401 87.9219 14.6328C87.9219 14.4401 87.8568 14.2865 87.7266 14.1719C87.6016 14.0573 87.3776 13.9948 87.0547 13.9844V13.6953H89.5V13.9844C89.2604 14.0104 89.0651 14.1042 88.9141 14.2656C88.763 14.4219 88.5104 14.9609 88.1562 15.8828L86.0703 21.2969C85.5443 22.651 85.1536 23.4844 84.8984 23.7969C84.5391 24.2344 84.0885 24.4531 83.5469 24.4531C83.1146 24.4531 82.763 24.3281 82.4922 24.0781C82.2266 23.8333 82.0938 23.5365 82.0938 23.1875C82.0938 22.8854 82.1849 22.6354 82.3672 22.4375C82.5547 22.2396 82.7839 22.1406 83.0547 22.1406C83.3151 22.1406 83.5234 22.224 83.6797 22.3906C83.8411 22.5573 83.9245 22.8151 83.9297 23.1641C83.9349 23.362 83.9583 23.4896 84 23.5469C84.0417 23.6042 84.1016 23.6328 84.1797 23.6328C84.3047 23.6328 84.4375 23.5573 84.5781 23.4062C84.7865 23.1875 85.0312 22.6875 85.3125 21.9062L85.5391 21.2969ZM97.2422 13.6953V19.4141C97.2422 19.9714 97.2943 20.3203 97.3984 20.4609C97.5026 20.5964 97.7135 20.6823 98.0312 20.7188V21H95.0547V20.0234C94.7057 20.4401 94.3568 20.7448 94.0078 20.9375C93.6589 21.125 93.2682 21.2188 92.8359 21.2188C92.4245 21.2188 92.0573 21.0938 91.7344 20.8438C91.4167 20.5885 91.2031 20.2917 91.0938 19.9531C90.9844 19.6146 90.9297 19.0234 90.9297 18.1797V15.2812C90.9297 14.7292 90.8776 14.3854 90.7734 14.25C90.6745 14.1146 90.4635 14.026 90.1406 13.9844V13.6953H93.1172V18.6875C93.1172 19.2083 93.1406 19.5443 93.1875 19.6953C93.2396 19.8464 93.3177 19.9609 93.4219 20.0391C93.5312 20.1172 93.6562 20.1562 93.7969 20.1562C93.9844 20.1562 94.1536 20.1068 94.3047 20.0078C94.513 19.8724 94.763 19.599 95.0547 19.1875V15.2812C95.0547 14.7292 95.0026 14.3854 94.8984 14.25C94.7995 14.1146 94.5885 14.026 94.2656 13.9844V13.6953H97.2422ZM102.078 13.6953V14.6406C102.453 14.2344 102.812 13.9401 103.156 13.7578C103.5 13.5703 103.87 13.4766 104.266 13.4766C104.74 13.4766 105.133 13.6094 105.445 13.875C105.758 14.1354 105.966 14.4609 106.07 14.8516C106.154 15.1484 106.195 15.7188 106.195 16.5625V19.4062C106.195 19.9688 106.245 20.3203 106.344 20.4609C106.448 20.5964 106.661 20.6823 106.984 20.7188V21H103.289V20.7188C103.565 20.6823 103.763 20.5677 103.883 20.375C103.966 20.2448 104.008 19.9219 104.008 19.4062V16.1562C104.008 15.5573 103.984 15.1797 103.938 15.0234C103.891 14.8672 103.81 14.7474 103.695 14.6641C103.586 14.5755 103.464 14.5312 103.328 14.5312C102.88 14.5312 102.464 14.8516 102.078 15.4922V19.4062C102.078 19.9531 102.128 20.2995 102.227 20.4453C102.331 20.5911 102.521 20.6823 102.797 20.7188V21H99.1016V20.7188C99.4089 20.6875 99.6276 20.5885 99.7578 20.4219C99.8464 20.3073 99.8906 19.9688 99.8906 19.4062V15.2812C99.8906 14.7292 99.8385 14.3854 99.7344 14.25C99.6354 14.1146 99.4245 14.026 99.1016 13.9844V13.6953H102.078ZM110.898 11.0234V13.6953H112.633V14.4688H110.898V18.9766C110.898 19.3984 110.917 19.6719 110.953 19.7969C110.995 19.9167 111.065 20.0156 111.164 20.0938C111.263 20.1667 111.354 20.2031 111.438 20.2031C111.776 20.2031 112.096 19.9453 112.398 19.4297L112.633 19.6016C112.211 20.6016 111.526 21.1016 110.578 21.1016C110.115 21.1016 109.721 20.974 109.398 20.7188C109.081 20.4583 108.878 20.1693 108.789 19.8516C108.737 19.6745 108.711 19.1953 108.711 18.4141V14.4688H107.758V14.1953C108.414 13.7318 108.971 13.2448 109.43 12.7344C109.893 12.224 110.297 11.6536 110.641 11.0234H110.898ZM117.359 19.9219C116.469 20.7083 115.669 21.1016 114.961 21.1016C114.544 21.1016 114.198 20.9661 113.922 20.6953C113.646 20.4193 113.508 20.0755 113.508 19.6641C113.508 19.1068 113.747 18.6068 114.227 18.1641C114.706 17.7161 115.75 17.1224 117.359 16.3828V15.6484C117.359 15.0964 117.328 14.75 117.266 14.6094C117.208 14.4635 117.096 14.3385 116.93 14.2344C116.763 14.125 116.576 14.0703 116.367 14.0703C116.029 14.0703 115.75 14.1458 115.531 14.2969C115.396 14.3906 115.328 14.5 115.328 14.625C115.328 14.7344 115.401 14.8698 115.547 15.0312C115.745 15.2552 115.844 15.4714 115.844 15.6797C115.844 15.9349 115.747 16.1536 115.555 16.3359C115.367 16.513 115.12 16.6016 114.812 16.6016C114.484 16.6016 114.208 16.5026 113.984 16.3047C113.766 16.1068 113.656 15.875 113.656 15.6094C113.656 15.2344 113.805 14.8776 114.102 14.5391C114.398 14.1953 114.812 13.9323 115.344 13.75C115.875 13.5677 116.427 13.4766 117 13.4766C117.693 13.4766 118.24 13.625 118.641 13.9219C119.047 14.2135 119.31 14.5312 119.43 14.875C119.503 15.0938 119.539 15.5964 119.539 16.3828V19.2188C119.539 19.5521 119.552 19.763 119.578 19.8516C119.604 19.9349 119.643 19.9974 119.695 20.0391C119.747 20.0807 119.807 20.1016 119.875 20.1016C120.01 20.1016 120.148 20.0052 120.289 19.8125L120.523 20C120.263 20.3854 119.992 20.6667 119.711 20.8438C119.435 21.0156 119.12 21.1016 118.766 21.1016C118.349 21.1016 118.023 21.0052 117.789 20.8125C117.555 20.6146 117.411 20.3177 117.359 19.9219ZM117.359 19.3516V16.9062C116.729 17.276 116.26 17.6719 115.953 18.0938C115.75 18.375 115.648 18.6589 115.648 18.9453C115.648 19.1849 115.734 19.3958 115.906 19.5781C116.036 19.7188 116.219 19.7891 116.453 19.7891C116.714 19.7891 117.016 19.6432 117.359 19.3516ZM124.359 13.6953V14.6562C124.76 14.2188 125.13 13.9141 125.469 13.7422C125.812 13.5651 126.188 13.4766 126.594 13.4766C127.062 13.4766 127.456 13.5859 127.773 13.8047C128.091 14.0234 128.336 14.3568 128.508 14.8047C128.924 14.3359 129.323 13.9974 129.703 13.7891C130.089 13.5807 130.49 13.4766 130.906 13.4766C131.411 13.4766 131.812 13.5938 132.109 13.8281C132.411 14.0573 132.62 14.3516 132.734 14.7109C132.854 15.0651 132.914 15.6328 132.914 16.4141V19.4062C132.914 19.9688 132.964 20.3177 133.062 20.4531C133.167 20.5885 133.38 20.6771 133.703 20.7188V21H129.93V20.7188C130.227 20.6927 130.445 20.5781 130.586 20.375C130.68 20.2344 130.727 19.9115 130.727 19.4062V16.2656C130.727 15.6146 130.701 15.2005 130.648 15.0234C130.596 14.8464 130.513 14.7161 130.398 14.6328C130.289 14.5443 130.159 14.5 130.008 14.5C129.784 14.5 129.557 14.5833 129.328 14.75C129.099 14.9115 128.867 15.1562 128.633 15.4844V19.4062C128.633 19.9323 128.677 20.263 128.766 20.3984C128.885 20.5911 129.115 20.6979 129.453 20.7188V21H125.672V20.7188C125.875 20.7083 126.034 20.6589 126.148 20.5703C126.268 20.4766 126.346 20.3672 126.383 20.2422C126.424 20.112 126.445 19.8333 126.445 19.4062V16.2656C126.445 15.6042 126.419 15.1901 126.367 15.0234C126.315 14.8568 126.227 14.7266 126.102 14.6328C125.982 14.5391 125.852 14.4922 125.711 14.4922C125.503 14.4922 125.312 14.5469 125.141 14.6562C124.896 14.8177 124.635 15.0938 124.359 15.4844V19.4062C124.359 19.9219 124.409 20.263 124.508 20.4297C124.612 20.5911 124.826 20.6875 125.148 20.7188V21H121.383V20.7188C121.69 20.6875 121.909 20.5885 122.039 20.4219C122.128 20.3073 122.172 19.9688 122.172 19.4062V15.2812C122.172 14.7292 122.12 14.3854 122.016 14.25C121.917 14.1146 121.706 14.026 121.383 13.9844V13.6953H124.359ZM136.414 10.1562C136.753 10.1562 137.039 10.276 137.273 10.5156C137.508 10.75 137.625 11.0339 137.625 11.3672C137.625 11.7005 137.505 11.9844 137.266 12.2188C137.031 12.4531 136.747 12.5703 136.414 12.5703C136.081 12.5703 135.797 12.4531 135.562 12.2188C135.328 11.9844 135.211 11.7005 135.211 11.3672C135.211 11.0339 135.328 10.75 135.562 10.5156C135.797 10.276 136.081 10.1562 136.414 10.1562ZM137.508 13.6953V19.4844C137.508 20 137.568 20.3307 137.688 20.4766C137.807 20.6172 138.042 20.6979 138.391 20.7188V21H134.445V20.7188C134.768 20.7083 135.008 20.6146 135.164 20.4375C135.268 20.3177 135.32 20 135.32 19.4844V15.2188C135.32 14.7031 135.26 14.375 135.141 14.2344C135.021 14.0885 134.789 14.0052 134.445 13.9844V13.6953H137.508ZM145.297 17.0859H141.289C141.336 18.0547 141.594 18.8203 142.062 19.3828C142.422 19.8151 142.854 20.0312 143.359 20.0312C143.672 20.0312 143.956 19.9453 144.211 19.7734C144.466 19.5964 144.74 19.2812 145.031 18.8281L145.297 19C144.901 19.8073 144.464 20.3802 143.984 20.7188C143.505 21.0521 142.951 21.2188 142.32 21.2188C141.237 21.2188 140.417 20.8021 139.859 19.9688C139.411 19.2969 139.188 18.4635 139.188 17.4688C139.188 16.25 139.516 15.2812 140.172 14.5625C140.833 13.8385 141.607 13.4766 142.492 13.4766C143.232 13.4766 143.872 13.7812 144.414 14.3906C144.961 14.9948 145.255 15.8932 145.297 17.0859ZM143.375 16.5625C143.375 15.724 143.328 15.1484 143.234 14.8359C143.146 14.5234 143.005 14.2865 142.812 14.125C142.703 14.0312 142.557 13.9844 142.375 13.9844C142.104 13.9844 141.883 14.1172 141.711 14.3828C141.404 14.8464 141.25 15.4818 141.25 16.2891V16.5625H143.375ZM149.203 13.6953V14.6406C149.578 14.2344 149.938 13.9401 150.281 13.7578C150.625 13.5703 150.995 13.4766 151.391 13.4766C151.865 13.4766 152.258 13.6094 152.57 13.875C152.883 14.1354 153.091 14.4609 153.195 14.8516C153.279 15.1484 153.32 15.7188 153.32 16.5625V19.4062C153.32 19.9688 153.37 20.3203 153.469 20.4609C153.573 20.5964 153.786 20.6823 154.109 20.7188V21H150.414V20.7188C150.69 20.6823 150.888 20.5677 151.008 20.375C151.091 20.2448 151.133 19.9219 151.133 19.4062V16.1562C151.133 15.5573 151.109 15.1797 151.062 15.0234C151.016 14.8672 150.935 14.7474 150.82 14.6641C150.711 14.5755 150.589 14.5312 150.453 14.5312C150.005 14.5312 149.589 14.8516 149.203 15.4922V19.4062C149.203 19.9531 149.253 20.2995 149.352 20.4453C149.456 20.5911 149.646 20.6823 149.922 20.7188V21H146.227V20.7188C146.534 20.6875 146.753 20.5885 146.883 20.4219C146.971 20.3073 147.016 19.9688 147.016 19.4062V15.2812C147.016 14.7292 146.964 14.3854 146.859 14.25C146.76 14.1146 146.549 14.026 146.227 13.9844V13.6953H149.203ZM158.023 11.0234V13.6953H159.758V14.4688H158.023V18.9766C158.023 19.3984 158.042 19.6719 158.078 19.7969C158.12 19.9167 158.19 20.0156 158.289 20.0938C158.388 20.1667 158.479 20.2031 158.562 20.2031C158.901 20.2031 159.221 19.9453 159.523 19.4297L159.758 19.6016C159.336 20.6016 158.651 21.1016 157.703 21.1016C157.24 21.1016 156.846 20.974 156.523 20.7188C156.206 20.4583 156.003 20.1693 155.914 19.8516C155.862 19.6745 155.836 19.1953 155.836 18.4141V14.4688H154.883V14.1953C155.539 13.7318 156.096 13.2448 156.555 12.7344C157.018 12.224 157.422 11.6536 157.766 11.0234H158.023ZM163.898 13.4766C164.534 13.4766 165.125 13.6406 165.672 13.9688C166.219 14.2969 166.633 14.763 166.914 15.3672C167.201 15.9714 167.344 16.6328 167.344 17.3516C167.344 18.388 167.081 19.2552 166.555 19.9531C165.919 20.7969 165.042 21.2188 163.922 21.2188C162.823 21.2188 161.977 20.8333 161.383 20.0625C160.789 19.2917 160.492 18.3984 160.492 17.3828C160.492 16.3359 160.794 15.4245 161.398 14.6484C162.008 13.8672 162.841 13.4766 163.898 13.4766ZM163.93 14.0312C163.664 14.0312 163.435 14.1328 163.242 14.3359C163.055 14.5339 162.93 14.9297 162.867 15.5234C162.81 16.112 162.781 16.9323 162.781 17.9844C162.781 18.5417 162.818 19.0625 162.891 19.5469C162.948 19.9167 163.07 20.1979 163.258 20.3906C163.445 20.5833 163.659 20.6797 163.898 20.6797C164.133 20.6797 164.328 20.6146 164.484 20.4844C164.688 20.3073 164.823 20.0599 164.891 19.7422C164.995 19.2474 165.047 18.2474 165.047 16.7422C165.047 15.8568 164.997 15.25 164.898 14.9219C164.799 14.5885 164.654 14.3464 164.461 14.1953C164.326 14.0859 164.148 14.0312 163.93 14.0312ZM73.6172 35.9844H69.875L69.4297 37.0156C69.2839 37.3594 69.2109 37.6432 69.2109 37.8672C69.2109 38.1641 69.3307 38.3828 69.5703 38.5234C69.7109 38.6068 70.0573 38.6693 70.6094 38.7109V39H67.0859V38.7109C67.4661 38.6536 67.7786 38.4974 68.0234 38.2422C68.2682 37.9818 68.5703 37.4479 68.9297 36.6406L72.7188 28.1875H72.8672L76.6875 36.875C77.0521 37.6979 77.3516 38.2161 77.5859 38.4297C77.763 38.5911 78.013 38.6849 78.3359 38.7109V39H73.2109V38.7109H73.4219C73.8333 38.7109 74.1224 38.6536 74.2891 38.5391C74.4036 38.4557 74.4609 38.3359 74.4609 38.1797C74.4609 38.0859 74.4453 37.9896 74.4141 37.8906C74.4036 37.8438 74.3255 37.6484 74.1797 37.3047L73.6172 35.9844ZM73.3516 35.4062L71.7734 31.7578L70.1484 35.4062H73.3516ZM82.0938 31.6953V33.3516C82.5781 32.5964 83.0026 32.0964 83.3672 31.8516C83.7318 31.6016 84.0833 31.4766 84.4219 31.4766C84.7135 31.4766 84.9453 31.5677 85.1172 31.75C85.2943 31.9271 85.3828 32.1797 85.3828 32.5078C85.3828 32.8568 85.2969 33.1276 85.125 33.3203C84.9583 33.513 84.7552 33.6094 84.5156 33.6094C84.2396 33.6094 84 33.5208 83.7969 33.3438C83.5938 33.1667 83.474 33.0677 83.4375 33.0469C83.3854 33.0156 83.3255 33 83.2578 33C83.1068 33 82.9635 33.0573 82.8281 33.1719C82.6146 33.349 82.4531 33.6016 82.3438 33.9297C82.1771 34.4349 82.0938 34.9922 82.0938 35.6016V37.2812L82.1016 37.7188C82.1016 38.0156 82.1198 38.2057 82.1562 38.2891C82.2188 38.4297 82.3099 38.5339 82.4297 38.6016C82.5547 38.6641 82.763 38.7031 83.0547 38.7188V39H79.1094V38.7188C79.4271 38.6927 79.6406 38.6068 79.75 38.4609C79.8646 38.3099 79.9219 37.9167 79.9219 37.2812V33.2422C79.9219 32.8255 79.901 32.5599 79.8594 32.4453C79.8073 32.2995 79.7318 32.1927 79.6328 32.125C79.5339 32.0573 79.3594 32.0104 79.1094 31.9844V31.6953H82.0938ZM92.3594 35.0859H88.3516C88.3984 36.0547 88.6562 36.8203 89.125 37.3828C89.4844 37.8151 89.9167 38.0312 90.4219 38.0312C90.7344 38.0312 91.0182 37.9453 91.2734 37.7734C91.5286 37.5964 91.8021 37.2812 92.0938 36.8281L92.3594 37C91.9635 37.8073 91.526 38.3802 91.0469 38.7188C90.5677 39.0521 90.013 39.2188 89.3828 39.2188C88.2995 39.2188 87.4792 38.8021 86.9219 37.9688C86.474 37.2969 86.25 36.4635 86.25 35.4688C86.25 34.25 86.5781 33.2812 87.2344 32.5625C87.8958 31.8385 88.6693 31.4766 89.5547 31.4766C90.2943 31.4766 90.9349 31.7812 91.4766 32.3906C92.0234 32.9948 92.3177 33.8932 92.3594 35.0859ZM90.4375 34.5625C90.4375 33.724 90.3906 33.1484 90.2969 32.8359C90.2083 32.5234 90.0677 32.2865 89.875 32.125C89.7656 32.0312 89.6198 31.9844 89.4375 31.9844C89.1667 31.9844 88.9453 32.1172 88.7734 32.3828C88.4661 32.8464 88.3125 33.4818 88.3125 34.2891V34.5625H90.4375ZM96.2656 31.6953V32.6406C96.6406 32.2344 97 31.9401 97.3438 31.7578C97.6875 31.5703 98.0573 31.4766 98.4531 31.4766C98.9271 31.4766 99.3203 31.6094 99.6328 31.875C99.9453 32.1354 100.154 32.4609 100.258 32.8516C100.341 33.1484 100.383 33.7188 100.383 34.5625V37.4062C100.383 37.9688 100.432 38.3203 100.531 38.4609C100.635 38.5964 100.849 38.6823 101.172 38.7188V39H97.4766V38.7188C97.7526 38.6823 97.9505 38.5677 98.0703 38.375C98.1536 38.2448 98.1953 37.9219 98.1953 37.4062V34.1562C98.1953 33.5573 98.1719 33.1797 98.125 33.0234C98.0781 32.8672 97.9974 32.7474 97.8828 32.6641C97.7734 32.5755 97.651 32.5312 97.5156 32.5312C97.0677 32.5312 96.651 32.8516 96.2656 33.4922V37.4062C96.2656 37.9531 96.3151 38.2995 96.4141 38.4453C96.5182 38.5911 96.7083 38.6823 96.9844 38.7188V39H93.2891V38.7188C93.5964 38.6875 93.8151 38.5885 93.9453 38.4219C94.0339 38.3073 94.0781 37.9688 94.0781 37.4062V33.2812C94.0781 32.7292 94.026 32.3854 93.9219 32.25C93.8229 32.1146 93.612 32.026 93.2891 31.9844V31.6953H96.2656ZM106.805 31.4922L106.922 33.9844H106.656C106.339 33.2448 106.008 32.7396 105.664 32.4688C105.326 32.1979 104.987 32.0625 104.648 32.0625C104.435 32.0625 104.253 32.1354 104.102 32.2812C103.951 32.4219 103.875 32.5859 103.875 32.7734C103.875 32.9141 103.927 33.0495 104.031 33.1797C104.198 33.3932 104.664 33.7604 105.43 34.2812C106.195 34.7969 106.698 35.237 106.938 35.6016C107.182 35.9609 107.305 36.3646 107.305 36.8125C107.305 37.2188 107.203 37.6172 107 38.0078C106.797 38.3984 106.51 38.6979 106.141 38.9062C105.771 39.1146 105.362 39.2188 104.914 39.2188C104.565 39.2188 104.099 39.1094 103.516 38.8906C103.359 38.8333 103.253 38.8047 103.195 38.8047C103.023 38.8047 102.88 38.9349 102.766 39.1953H102.508L102.383 36.5703H102.648C102.883 37.2578 103.203 37.7734 103.609 38.1172C104.021 38.4609 104.409 38.6328 104.773 38.6328C105.023 38.6328 105.227 38.5573 105.383 38.4062C105.544 38.25 105.625 38.0625 105.625 37.8438C105.625 37.5938 105.547 37.3776 105.391 37.1953C105.234 37.013 104.885 36.737 104.344 36.3672C103.547 35.8151 103.031 35.3932 102.797 35.1016C102.453 34.6745 102.281 34.2031 102.281 33.6875C102.281 33.125 102.474 32.6172 102.859 32.1641C103.25 31.7057 103.812 31.4766 104.547 31.4766C104.943 31.4766 105.326 31.5729 105.695 31.7656C105.836 31.8438 105.951 31.8828 106.039 31.8828C106.133 31.8828 106.208 31.8646 106.266 31.8281C106.323 31.7865 106.414 31.6745 106.539 31.4922H106.805ZM119.523 28.4062V36.8125C119.523 37.3802 119.539 37.7161 119.57 37.8203C119.612 37.9922 119.69 38.1198 119.805 38.2031C119.924 38.2865 120.13 38.3385 120.422 38.3594V38.6172L117.336 39.2188V38.0625C116.966 38.5104 116.635 38.8151 116.344 38.9766C116.057 39.138 115.732 39.2188 115.367 39.2188C114.435 39.2188 113.698 38.8021 113.156 37.9688C112.719 37.2917 112.5 36.4609 112.5 35.4766C112.5 34.6901 112.635 33.987 112.906 33.3672C113.177 32.7422 113.547 32.2708 114.016 31.9531C114.49 31.6354 114.997 31.4766 115.539 31.4766C115.888 31.4766 116.198 31.5443 116.469 31.6797C116.74 31.8151 117.029 32.0521 117.336 32.3906V30.1875C117.336 29.6302 117.312 29.2943 117.266 29.1797C117.203 29.0286 117.109 28.9167 116.984 28.8438C116.859 28.7708 116.625 28.7344 116.281 28.7344V28.4062H119.523ZM117.336 33.3594C116.951 32.6198 116.479 32.25 115.922 32.25C115.729 32.25 115.57 32.3021 115.445 32.4062C115.253 32.5677 115.094 32.8516 114.969 33.2578C114.849 33.6641 114.789 34.2865 114.789 35.125C114.789 36.0469 114.857 36.7292 114.992 37.1719C115.128 37.6146 115.312 37.9349 115.547 38.1328C115.667 38.2318 115.831 38.2812 116.039 38.2812C116.497 38.2812 116.93 37.9219 117.336 37.2031V33.3594ZM127.516 35.0859H123.508C123.555 36.0547 123.812 36.8203 124.281 37.3828C124.641 37.8151 125.073 38.0312 125.578 38.0312C125.891 38.0312 126.174 37.9453 126.43 37.7734C126.685 37.5964 126.958 37.2812 127.25 36.8281L127.516 37C127.12 37.8073 126.682 38.3802 126.203 38.7188C125.724 39.0521 125.169 39.2188 124.539 39.2188C123.456 39.2188 122.635 38.8021 122.078 37.9688C121.63 37.2969 121.406 36.4635 121.406 35.4688C121.406 34.25 121.734 33.2812 122.391 32.5625C123.052 31.8385 123.826 31.4766 124.711 31.4766C125.451 31.4766 126.091 31.7812 126.633 32.3906C127.18 32.9948 127.474 33.8932 127.516 35.0859ZM125.594 34.5625C125.594 33.724 125.547 33.1484 125.453 32.8359C125.365 32.5234 125.224 32.2865 125.031 32.125C124.922 32.0312 124.776 31.9844 124.594 31.9844C124.323 31.9844 124.102 32.1172 123.93 32.3828C123.622 32.8464 123.469 33.4818 123.469 34.2891V34.5625H125.594ZM142 35.2812L141.602 39H132.195V38.7109H132.547C132.854 38.7109 133.102 38.6562 133.289 38.5469C133.424 38.474 133.529 38.349 133.602 38.1719C133.659 38.0469 133.688 37.7188 133.688 37.1875V30.2188C133.688 29.6771 133.659 29.3385 133.602 29.2031C133.544 29.0677 133.427 28.9505 133.25 28.8516C133.078 28.7474 132.844 28.6953 132.547 28.6953H132.195V28.4062H137.844V28.6953H137.383C137.076 28.6953 136.828 28.75 136.641 28.8594C136.505 28.9323 136.398 29.0573 136.32 29.2344C136.263 29.3594 136.234 29.6875 136.234 30.2188V36.9688C136.234 37.5104 136.266 37.8568 136.328 38.0078C136.391 38.1536 136.513 38.263 136.695 38.3359C136.826 38.3828 137.141 38.4062 137.641 38.4062H138.523C139.086 38.4062 139.555 38.3073 139.93 38.1094C140.305 37.9115 140.628 37.599 140.898 37.1719C141.174 36.7448 141.435 36.1146 141.68 35.2812H142ZM145.969 28.4062V37.4844C145.969 38 146.029 38.3307 146.148 38.4766C146.268 38.6172 146.503 38.6979 146.852 38.7188V39H142.906V38.7188C143.229 38.7083 143.469 38.6146 143.625 38.4375C143.729 38.3177 143.781 38 143.781 37.4844V29.9219C143.781 29.4115 143.721 29.0859 143.602 28.9453C143.482 28.7995 143.25 28.7161 142.906 28.6953V28.4062H145.969ZM153.75 35.0859H149.742C149.789 36.0547 150.047 36.8203 150.516 37.3828C150.875 37.8151 151.307 38.0312 151.812 38.0312C152.125 38.0312 152.409 37.9453 152.664 37.7734C152.919 37.5964 153.193 37.2812 153.484 36.8281L153.75 37C153.354 37.8073 152.917 38.3802 152.438 38.7188C151.958 39.0521 151.404 39.2188 150.773 39.2188C149.69 39.2188 148.87 38.8021 148.312 37.9688C147.865 37.2969 147.641 36.4635 147.641 35.4688C147.641 34.25 147.969 33.2812 148.625 32.5625C149.286 31.8385 150.06 31.4766 150.945 31.4766C151.685 31.4766 152.326 31.7812 152.867 32.3906C153.414 32.9948 153.708 33.8932 153.75 35.0859ZM151.828 34.5625C151.828 33.724 151.781 33.1484 151.688 32.8359C151.599 32.5234 151.458 32.2865 151.266 32.125C151.156 32.0312 151.01 31.9844 150.828 31.9844C150.557 31.9844 150.336 32.1172 150.164 32.3828C149.857 32.8464 149.703 33.4818 149.703 34.2891V34.5625H151.828ZM161.773 28.4062V36.8125C161.773 37.3802 161.789 37.7161 161.82 37.8203C161.862 37.9922 161.94 38.1198 162.055 38.2031C162.174 38.2865 162.38 38.3385 162.672 38.3594V38.6172L159.586 39.2188V38.0625C159.216 38.5104 158.885 38.8151 158.594 38.9766C158.307 39.138 157.982 39.2188 157.617 39.2188C156.685 39.2188 155.948 38.8021 155.406 37.9688C154.969 37.2917 154.75 36.4609 154.75 35.4766C154.75 34.6901 154.885 33.987 155.156 33.3672C155.427 32.7422 155.797 32.2708 156.266 31.9531C156.74 31.6354 157.247 31.4766 157.789 31.4766C158.138 31.4766 158.448 31.5443 158.719 31.6797C158.99 31.8151 159.279 32.0521 159.586 32.3906V30.1875C159.586 29.6302 159.562 29.2943 159.516 29.1797C159.453 29.0286 159.359 28.9167 159.234 28.8438C159.109 28.7708 158.875 28.7344 158.531 28.7344V28.4062H161.773ZM159.586 33.3594C159.201 32.6198 158.729 32.25 158.172 32.25C157.979 32.25 157.82 32.3021 157.695 32.4062C157.503 32.5677 157.344 32.8516 157.219 33.2578C157.099 33.6641 157.039 34.2865 157.039 35.125C157.039 36.0469 157.107 36.7292 157.242 37.1719C157.378 37.6146 157.562 37.9349 157.797 38.1328C157.917 38.2318 158.081 38.2812 158.289 38.2812C158.747 38.2812 159.18 37.9219 159.586 37.2031V33.3594ZM167.023 31.4766C167.659 31.4766 168.25 31.6406 168.797 31.9688C169.344 32.2969 169.758 32.763 170.039 33.3672C170.326 33.9714 170.469 34.6328 170.469 35.3516C170.469 36.388 170.206 37.2552 169.68 37.9531C169.044 38.7969 168.167 39.2188 167.047 39.2188C165.948 39.2188 165.102 38.8333 164.508 38.0625C163.914 37.2917 163.617 36.3984 163.617 35.3828C163.617 34.3359 163.919 33.4245 164.523 32.6484C165.133 31.8672 165.966 31.4766 167.023 31.4766ZM167.055 32.0312C166.789 32.0312 166.56 32.1328 166.367 32.3359C166.18 32.5339 166.055 32.9297 165.992 33.5234C165.935 34.112 165.906 34.9323 165.906 35.9844C165.906 36.5417 165.943 37.0625 166.016 37.5469C166.073 37.9167 166.195 38.1979 166.383 38.3906C166.57 38.5833 166.784 38.6797 167.023 38.6797C167.258 38.6797 167.453 38.6146 167.609 38.4844C167.812 38.3073 167.948 38.0599 168.016 37.7422C168.12 37.2474 168.172 36.2474 168.172 34.7422C168.172 33.8568 168.122 33.25 168.023 32.9219C167.924 32.5885 167.779 32.3464 167.586 32.1953C167.451 32.0859 167.273 32.0312 167.055 32.0312ZM169.406 28.0469L166.82 30.7578H166.148L167.055 28.0469H169.406Z" fill="white"/>
<path d="M29.38 1.4347C22.758 2.18515 16.312 4.50272 11.428 7.85768C6.566 11.1906 2.892 16.6424 1.858 22.028C1.506 23.9041 1.726 27.9433 2.276 29.687C3.684 34.1014 6.412 37.8536 10.306 40.8113C19.524 47.764 33.054 50.1257 45.44 46.9253C49.202 45.9541 53.58 44.0338 56.506 42.0915C60.796 39.2442 64.47 34.7635 65.68 30.923C66.538 28.1419 66.604 27.6563 66.516 24.3455C66.428 21.6527 66.318 20.8361 65.9 19.6442C64.316 15.1856 61.39 11.323 57.364 8.38741C55.12 6.732 54.658 6.44507 52.304 5.29732C45.44 1.89822 37.322 0.529746 29.38 1.4347ZM42.47 3.44326C45.484 4.06128 49.51 5.36353 51.314 6.31263C54.614 8.0784 55.78 8.80678 57.782 10.5063C62.666 14.5676 65.306 19.7104 65.284 25.096C65.262 29.8856 63.458 33.8586 59.542 37.7212C57.32 39.8843 55.406 41.2307 52.304 42.7978C49.29 44.3207 47.662 44.8946 44.296 45.6892C37.608 47.2784 30.81 47.2784 24.43 45.7113C18.578 44.2545 15.564 42.864 10.746 39.3325C6.72 36.3969 3.926 31.8721 3.178 27.1045C2.364 21.8955 4.74 15.7374 9.162 11.5658C10.196 10.5946 12.77 8.60813 14.09 7.79146C15.344 6.99687 19.172 5.25317 20.954 4.65723C25.53 3.15633 29.358 2.64867 35.21 2.75903C38.884 2.82524 40.094 2.93561 42.47 3.44326Z" fill="white"/>
<path d="M32.68 6.73201C32.68 7.63696 32.57 8.60813 32.438 8.91714C32.13 9.55723 31.184 9.99867 28.72 10.5946C27.686 10.8374 26.124 11.3451 25.266 11.6982C24.386 12.0735 23.374 12.3604 23.022 12.3604C22.428 12.3604 18.71 11.2347 17.94 10.8374C17.764 10.7491 17.06 10.5284 16.4 10.3739C15.74 10.2194 14.904 9.99867 14.552 9.86624C13.98 9.66759 13.848 9.68967 13.408 10.2194C12.836 10.8816 12.902 11.3009 13.826 12.7798C14.112 13.2433 14.266 13.8392 14.222 14.2586C14.178 14.8766 14.332 15.1415 15.278 16.0244C16.466 17.15 16.598 17.5253 16.07 18.2316C15.608 18.8496 15.652 20.1518 16.158 20.6153C16.708 21.123 17.39 20.9243 18.732 19.8649C20.954 18.0771 21.438 17.8122 22.428 17.7901C23.462 17.768 24.32 18.2978 24.32 18.982C24.32 19.1807 24.518 19.5338 24.782 19.7766C25.178 20.1298 25.662 20.196 28.368 20.2622C30.062 20.3063 31.558 20.4167 31.668 20.5271C31.756 20.6153 31.338 21.0789 30.722 21.5424C29.82 22.2266 29.666 22.4253 29.864 22.6901C30.348 23.264 32.218 22.9108 34.242 21.8734C36.09 20.9464 36.09 20.9464 38.906 21.1009C41.194 21.2113 41.766 21.3216 41.986 21.6307C42.734 22.6901 44.362 22.4253 45.946 20.9685C47.332 19.6883 47.794 19.4897 49.708 19.291C51.116 19.1365 51.138 19.1586 51.292 19.7325C51.49 20.5491 51.82 20.4388 52.788 19.2027C53.756 17.9667 54.262 17.8343 54.658 18.673C54.922 19.2689 55.274 19.291 55.648 18.6951C55.802 18.4523 55.736 17.9667 55.384 16.9293C55.12 16.1347 54.9 15.2077 54.9 14.8545C54.9 13.9937 54.086 13.2433 51.688 11.8748C49.356 10.5725 48.102 10.1973 44.934 9.93246C43.614 9.80003 42.14 9.60138 41.634 9.49102C41.128 9.35858 39.83 9.18201 38.73 9.07165C36.904 8.89507 36.728 8.85093 36.31 8.25498C35.628 7.26174 33.34 5.0766 32.988 5.0766C32.746 5.0766 32.68 5.45183 32.68 6.73201ZM34.814 7.81354C36.112 9.07165 36.002 9.49102 34.418 9.49102C33.296 9.49102 33.296 9.49102 33.428 8.873C33.516 8.54192 33.582 7.94597 33.56 7.54868C33.56 7.17345 33.604 6.84237 33.67 6.84237C33.736 6.84237 34.242 7.28381 34.814 7.81354ZM39.126 9.93246C39.566 9.93246 39.566 9.95453 39.06 10.4843C38.444 11.1464 38.246 11.1685 37.542 10.6167C36.86 10.087 37.124 9.62345 38.004 9.80003C38.378 9.86624 38.884 9.93246 39.126 9.93246ZM34.88 10.5725C34.88 10.6829 34.726 10.8816 34.55 11.0361C34.154 11.3671 33.626 11.014 33.868 10.6167C34.044 10.3298 34.88 10.2856 34.88 10.5725ZM18.27 11.8527C19.964 12.4045 21.482 12.9784 21.636 13.1108C21.812 13.2874 21.944 14.0379 21.966 15.009C22.01 16.6424 22.01 16.6424 21.13 17.0617C20.646 17.2825 19.898 17.7901 19.48 18.1874C17.522 20.0194 16.62 20.3505 16.62 19.2469C16.62 18.9158 16.708 18.5406 16.818 18.4302C16.928 18.2978 17.082 17.9005 17.148 17.5253C17.28 16.9293 17.192 16.7527 16.18 15.8257C15.586 15.2739 15.08 14.6117 15.08 14.391C15.08 14.1482 14.948 13.8392 14.772 13.7068C14.596 13.5523 14.508 13.2653 14.574 13.0446C14.64 12.8239 14.508 12.3162 14.31 11.9189C13.848 11.0361 14.024 10.5063 14.684 10.7271C14.97 10.8153 16.576 11.323 18.27 11.8527ZM45.396 11.1685C46.012 11.3451 46.012 11.632 45.396 12.2942C44.802 12.9343 44.406 12.9343 43.614 12.2721C42.932 11.7203 43.086 11.3892 44.12 11.1906C44.428 11.1464 44.714 11.0802 44.78 11.0581C44.846 11.0581 45.11 11.1023 45.396 11.1685ZM41.656 11.5216C42.03 11.8969 42.008 12.0072 41.238 12.559C40.556 13.0667 40.556 13.0667 39.808 12.6694C39.39 12.4487 39.06 12.1397 39.06 11.9631C39.06 11.3671 41.15 11.014 41.656 11.5216ZM50.852 12.3604C52.084 12.9784 53.338 13.773 53.668 14.1041C54.196 14.6559 54.24 14.8104 54.02 15.2298C53.8 15.6271 53.822 15.8478 54.042 16.2892C54.306 16.7527 54.306 16.8631 54.064 16.9514C53.888 16.9955 53.426 17.3487 53.008 17.7018C52.304 18.3198 52.172 18.364 49.84 18.4523C47.024 18.5406 47.046 18.5626 46.43 16.1347C46.034 14.5897 46.1 13.7951 46.782 12.25C47.178 11.3671 47.31 11.2568 47.926 11.2568C48.322 11.2568 49.576 11.7424 50.852 12.3604ZM37.52 11.8086C37.674 12.0072 37.762 12.1838 37.718 12.2059C37.674 12.228 37.322 12.4707 36.948 12.7356C36.266 13.1991 36.266 13.1991 35.584 12.7577C35.188 12.5149 34.88 12.25 34.88 12.1617C34.88 11.4775 37.014 11.1906 37.52 11.8086ZM33.516 12.1397C33.538 12.3383 33.274 12.7135 32.922 12.9784C32.262 13.464 32.262 13.464 31.47 13.0005C31.052 12.7356 30.7 12.5149 30.7 12.4707C30.7 12.4266 30.854 12.228 31.052 12.0293C31.536 11.5658 33.406 11.6541 33.516 12.1397ZM29.248 12.2059C29.644 12.4928 29.622 12.537 28.984 12.9784C28.17 13.5744 27.884 13.5744 27.202 13.0446C26.41 12.4266 26.718 11.9189 27.906 11.9189C28.434 11.9189 29.028 12.0514 29.248 12.2059ZM24.496 13.1771C24.408 13.6185 23.638 13.7289 23.506 13.3095C23.418 13.0888 23.748 12.9122 24.386 12.8239C24.496 12.8239 24.54 12.9784 24.496 13.1771ZM43.856 13.6847C43.878 13.8834 43.614 14.2586 43.24 14.5234C42.58 15.009 42.558 15.009 41.92 14.6338C41.172 14.1924 41.084 13.8171 41.656 13.4861C42.228 13.1329 43.768 13.2874 43.856 13.6847ZM39.632 13.773C39.852 13.9496 40.006 14.1262 39.94 14.1703C39.874 14.2144 39.5 14.4572 39.126 14.7442C38.4 15.2518 38.4 15.2518 37.74 14.7442C36.97 14.1924 36.926 14.0158 37.476 13.7068C38.026 13.3757 39.126 13.4198 39.632 13.773ZM35.54 14.0158C35.76 14.2807 35.694 14.4352 35.166 14.8766C34.396 15.5608 34.264 15.5608 33.472 14.8987C32.922 14.4572 32.856 14.3248 33.098 14.0379C33.472 13.5744 35.166 13.5744 35.54 14.0158ZM31.514 14.3469C31.558 14.5234 31.316 14.8545 31.008 15.0753C30.414 15.5167 29.798 15.4725 29.05 14.9428C28.676 14.6559 28.676 14.5676 28.918 14.2586C29.336 13.773 31.448 13.8392 31.514 14.3469ZM27.312 14.4572C27.466 14.8325 26.608 15.6491 26.08 15.6491C25.552 15.6491 24.694 14.8325 24.848 14.4572C24.936 14.2144 25.288 14.1262 26.08 14.1262C26.872 14.1262 27.224 14.2144 27.312 14.4572ZM23.33 14.7883C23.396 14.8987 23.352 15.009 23.242 15.009C23.11 15.009 23 14.8987 23 14.7883C23 14.6559 23.044 14.5676 23.088 14.5676C23.154 14.5676 23.264 14.6559 23.33 14.7883ZM45.33 16.1126C45.33 16.9514 44.736 17.15 43.922 16.5762C43.108 16.0023 43.064 15.7153 43.724 15.4725C44.516 15.1856 45.33 15.5167 45.33 16.1126ZM41.876 15.8919C41.898 16.0906 41.634 16.4658 41.282 16.7307C40.644 17.1942 40.6 17.1942 39.962 16.8189C39.236 16.4216 39.126 16.1347 39.544 15.7153C39.94 15.318 41.788 15.4725 41.876 15.8919ZM37.652 16.0023C37.762 16.2671 36.772 17.4149 36.42 17.4149C36.354 17.4149 36.024 17.1721 35.65 16.8631C35.012 16.3334 35.012 16.3113 35.408 16.0023C35.98 15.5608 37.498 15.5608 37.652 16.0023ZM33.582 16.2451C33.824 16.532 33.824 16.6203 33.56 16.7748C33.384 16.8852 33.032 17.1059 32.812 17.2825C32.438 17.5694 32.306 17.5473 31.646 17.1721C30.81 16.6644 30.81 16.6865 31.272 16.2451C31.712 15.7816 33.208 15.7816 33.582 16.2451ZM25.288 16.4658C25.728 16.8852 25.596 17.128 24.87 17.3045C24.298 17.459 23 16.9293 23 16.5762C23 16.0464 24.804 15.9581 25.288 16.4658ZM29.534 16.5541C29.578 16.7307 29.292 17.1059 28.918 17.3707C28.236 17.8343 28.236 17.8343 27.488 17.3928C26.674 16.9072 26.608 16.7748 27.004 16.3775C27.4 15.9802 29.468 16.1126 29.534 16.5541ZM43.768 17.5694C44.296 17.768 44.186 18.1874 43.46 18.7392C42.8 19.2027 42.778 19.2027 42.14 18.8275C41.436 18.4081 41.326 18.1212 41.744 17.7018C42.03 17.4149 43.196 17.3487 43.768 17.5694ZM39.83 18.2095C39.83 18.4302 39.566 18.7834 39.236 18.9599C38.73 19.2469 38.576 19.2469 38.07 18.982C36.794 18.2978 37.212 17.6135 38.84 17.7018C39.654 17.768 39.83 17.8343 39.83 18.2095ZM46.32 18.3419C46.32 18.5847 46.078 18.5847 45.682 18.3419C45.528 18.2316 45.462 18.0329 45.55 17.9005C45.66 17.7018 45.77 17.7018 46.012 17.9005C46.188 18.0329 46.32 18.2316 46.32 18.3419ZM31.8 18.5406C31.8 18.9379 30.458 19.4455 29.798 19.3131C29.028 19.1365 28.808 18.8496 29.16 18.4302C29.644 17.8563 31.8 17.9446 31.8 18.5406ZM35.76 18.2095C35.914 18.4081 36.002 18.5847 35.958 18.6068C35.386 19.0262 34.616 19.4234 34.418 19.4234C34.286 19.4234 33.89 19.2248 33.538 18.9599C33.01 18.5847 32.944 18.4302 33.142 18.1874C33.494 17.768 35.408 17.768 35.76 18.2095ZM27.048 18.3198C27.884 18.6289 27.774 19.1586 26.85 19.3352C25.948 19.4897 25.464 19.3572 25.266 18.8496C25.024 18.1874 25.992 17.9005 27.048 18.3198ZM45.572 19.7545C45.616 19.8649 45.506 20.1518 45.33 20.3946C45.088 20.7257 44.868 20.7698 44.252 20.6595C43.394 20.505 43.218 20.0415 43.856 19.6662C44.318 19.3793 45.484 19.4455 45.572 19.7545ZM41.92 19.9753C41.92 20.218 41.656 20.3063 40.82 20.3063C39.808 20.3063 39.5 20.1518 39.874 19.7987C39.94 19.7104 40.446 19.6442 40.974 19.6442C41.678 19.6442 41.92 19.7325 41.92 19.9753ZM34 20.8361C34 21.1451 32.548 21.7852 32.328 21.5865C32.284 21.5203 32.438 21.2775 32.68 21.0126C33.186 20.4608 34 20.3725 34 20.8361Z" fill="white"/>
<path d="M16.4 12.6473C16.4 12.8018 16.994 13.0887 17.808 13.3095C19.414 13.7288 20.36 13.795 20.36 13.464C20.36 13.1991 19.788 12.9563 18.314 12.6031C16.95 12.2941 16.4 12.2941 16.4 12.6473Z" fill="white"/>
<path d="M17.544 14.7442C17.61 15.0532 17.874 15.1194 19.04 15.1194C20.14 15.1194 20.47 15.0532 20.47 14.8104C20.47 14.5676 20.096 14.4572 18.974 14.4131C17.654 14.3689 17.478 14.4131 17.544 14.7442Z" fill="white"/>
<path d="M19.216 16.3996C18.226 16.8189 17.896 17.2604 18.358 17.5252C18.578 17.6797 20.272 16.8851 20.47 16.532C20.8 16.0243 20.206 15.9802 19.216 16.3996Z" fill="white"/>
<path d="M48.652 13.0667C48.322 13.5302 48.344 13.5964 48.718 13.9937C49.092 14.3469 49.224 14.3689 49.488 14.1261C49.906 13.7951 49.95 13.2212 49.576 12.846C49.202 12.4707 49.026 12.5149 48.652 13.0667Z" fill="white"/>
<path d="M34.11 28.0757C34.198 28.473 34.352 28.8924 34.462 29.0027C34.748 29.3338 34.704 30.1064 34.352 30.8127C34 31.4748 33.384 31.7397 30.48 32.4239C27.576 33.1082 27.092 33.2406 26.564 33.5275C25.97 33.8365 24.254 33.8807 23.33 33.5937C22.978 33.4613 21.614 32.9095 20.316 32.3577C16.334 30.6361 15.256 31.0334 16.158 33.8807C16.378 34.6311 16.532 35.4919 16.466 35.8009C16.378 36.2645 16.554 36.5955 17.302 37.4122C18.248 38.4496 18.248 38.4496 17.852 39.1338C16.378 41.6721 17.676 42.864 20.052 41.1865C22.208 39.6636 23 39.2442 23.792 39.2442C24.716 39.2442 25.332 39.7298 25.508 40.6347C25.706 41.628 26.674 41.937 29.358 41.8708C32.174 41.8046 32.416 42.0253 30.92 43.173C30.326 43.6365 29.842 44.1221 29.886 44.2546C30.106 44.9388 33.164 44.3208 34.99 43.2172C35.474 42.9302 36.068 42.8199 37.19 42.8419C39.412 42.864 41.326 43.1509 41.436 43.4379C41.832 44.6739 43.416 44.5636 45.198 43.173C45.836 42.6874 46.54 42.1577 46.738 42.0032C46.936 41.8708 47.816 41.6721 48.718 41.5838C50.346 41.4293 50.346 41.4293 50.192 42.0253C49.972 42.9302 50.698 42.7537 51.798 41.628C52.326 41.0762 52.986 40.5906 53.228 40.5244C53.492 40.4582 54.042 39.9064 54.438 39.2883C55.01 38.4055 55.098 38.0964 54.9 37.8537C54.768 37.6771 54.702 37.4564 54.768 37.346C55.032 36.9046 52.436 34.2338 51.754 34.2118C51.644 34.2118 51.292 34.0352 50.984 33.8145C50.148 33.2406 48.652 32.7329 46.98 32.446C46.188 32.3136 44.516 32.0046 43.24 31.7397C41.964 31.4969 40.358 31.21 39.654 31.1437C38.422 30.9892 37.96 30.7023 37.96 30.0622C37.96 28.9586 36.002 27.3694 34.66 27.3694C34 27.3694 33.978 27.3915 34.11 28.0757ZM36.2 29.0248C36.2 29.2014 36.068 29.3559 35.892 29.3559C35.496 29.3559 35.034 28.76 35.21 28.473C35.408 28.164 36.2 28.6055 36.2 29.0248ZM37.08 30.3491C37.168 31.232 37.08 31.3424 36.31 31.3424C35.232 31.3424 35.078 30.8127 35.892 30.0181C36.574 29.3559 36.992 29.4663 37.08 30.3491ZM41.656 32.3356C42.492 32.5122 42.514 32.5784 41.876 33.1302C41.238 33.66 40.996 33.66 40.292 33.0861C39.83 32.7109 39.764 32.5564 39.962 32.3136C40.116 32.137 40.38 32.0487 40.578 32.0928C40.776 32.137 41.26 32.2473 41.656 32.3356ZM18.996 32.7991C20.514 33.3068 22.538 34.1455 23.44 34.6311C23.704 34.7636 23.748 35.1388 23.682 36.2203C23.594 37.8095 23.374 38.4055 22.846 38.4055C22.472 38.4055 21.504 39.0014 19.744 40.3257C18.16 41.5397 17.588 41.2086 18.49 39.6194C19.172 38.4717 19.106 38.1185 18.05 37.0149C17.39 36.3307 17.28 36.0658 17.28 35.205C17.28 34.6532 17.126 33.8807 16.928 33.5275C16.576 32.8212 16.642 32.2253 17.06 32.2253C17.214 32.2253 18.072 32.4901 18.996 32.7991ZM38.4 32.5122C38.4 32.7991 37.256 33.7703 36.904 33.7703C36.794 33.7703 36.486 33.5275 36.2 33.1964C35.738 32.7329 35.716 32.6005 35.98 32.446C36.508 32.1149 38.4 32.1811 38.4 32.5122ZM34.176 32.9095C34.264 33.3951 32.988 33.9248 32.504 33.6158C31.91 33.2406 31.976 32.9537 32.724 32.7109C33.67 32.4239 34.088 32.4681 34.176 32.9095ZM50.918 34.7194C52.898 35.8451 54.02 36.9046 54.02 37.6329C54.02 39.0455 52.304 40.5244 50.588 40.6127C47.112 40.7672 47.134 40.7672 46.826 40.1712C46.43 39.3766 46.474 36.441 46.892 35.4257C47.552 33.8145 47.86 33.5055 48.608 33.6379C48.982 33.7262 50.016 34.1897 50.918 34.7194ZM44.208 33.991C44.956 34.2559 44.934 34.4546 44.098 35.0726C43.416 35.5802 43.416 35.5802 42.668 35.1829C41.832 34.7194 41.722 34.3442 42.316 34.0131C42.8 33.7262 43.504 33.7041 44.208 33.991ZM40.38 34.3221C40.534 34.5208 40.622 34.6973 40.578 34.7194C40.534 34.7636 40.204 35.0064 39.874 35.2491C39.258 35.7347 39.258 35.7347 38.488 35.2712C37.696 34.8077 37.696 34.5208 38.488 34.2118C39.214 33.9027 40.072 33.969 40.38 34.3221ZM36.398 34.5208C36.618 34.7856 36.508 34.9401 35.87 35.3816C35.1 35.9113 35.034 35.9113 34.418 35.5802C33.736 35.1829 33.626 34.896 34.044 34.4766C34.418 34.1014 36.09 34.1455 36.398 34.5208ZM31.998 34.6311C32.416 34.896 32.152 35.4919 31.514 35.7789C30.81 36.0879 29.226 35.2271 29.622 34.7415C29.908 34.3883 31.514 34.3221 31.998 34.6311ZM28.038 34.9401C28.214 35.1609 28.104 35.3595 27.576 35.7568C26.894 36.2645 26.872 36.2645 26.146 35.8672C25.442 35.4919 25.244 35.1167 25.574 34.8077C25.838 34.5208 27.774 34.6532 28.038 34.9401ZM45.616 36.4631C45.528 37.3239 45.264 37.4122 44.56 36.8604C44.032 36.419 44.01 36.3969 44.428 36.0879C44.67 35.9113 45.044 35.7568 45.286 35.7568C45.616 35.7568 45.682 35.8892 45.616 36.4631ZM42.58 36.3086C42.734 36.5073 42.822 36.6838 42.778 36.7059C42.734 36.728 42.36 36.9708 41.986 37.2577C41.26 37.7654 41.26 37.7654 40.6 37.2577C40.248 36.9928 39.94 36.7059 39.94 36.6176C39.94 35.9996 42.118 35.7568 42.58 36.3086ZM34.022 36.419C34.242 36.5514 34.44 36.75 34.44 36.8825C34.44 37.1915 33.538 37.9419 33.164 37.964C32.702 37.964 31.558 37.0811 31.712 36.8383C32.042 36.2865 33.34 36.0658 34.022 36.419ZM38.268 36.3307C38.84 36.5514 38.686 36.9487 37.872 37.3901C37.102 37.7874 36.948 37.7654 35.782 36.9266C35.738 36.9046 35.826 36.728 35.98 36.5293C36.266 36.1982 37.608 36.0658 38.268 36.3307ZM29.908 36.5514C30.106 36.6176 30.26 36.7942 30.26 36.9266C30.26 37.2136 29.38 38.1847 29.094 38.1847C28.786 38.1847 27.62 37.3018 27.62 37.0591C27.62 36.6176 29.16 36.2645 29.908 36.5514ZM26.08 36.9708C26.388 37.3239 26.212 37.7433 25.728 37.7433C25.552 37.7433 25.42 37.8316 25.42 37.964C25.42 38.0744 25.222 38.1847 24.98 38.1847C24.54 38.1847 24.408 37.6991 24.672 36.9928C24.848 36.5514 25.728 36.5293 26.08 36.9708ZM40.38 38.3613C40.842 38.7365 40.842 38.7365 40.138 39.2663C39.434 39.796 39.412 39.796 38.686 39.3987C38.29 39.178 37.96 38.9352 37.96 38.8469C37.96 38.4937 38.774 38.0744 39.632 37.9861C39.786 37.9861 40.116 38.1406 40.38 38.3613ZM44.692 38.2951C44.846 38.6703 43.988 39.487 43.46 39.487C42.932 39.487 42.074 38.6703 42.228 38.2951C42.316 38.0523 42.668 37.964 43.46 37.964C44.252 37.964 44.604 38.0523 44.692 38.2951ZM36.222 38.4055C36.794 38.7145 36.75 38.891 35.958 39.487C35.276 39.9946 35.276 39.9946 34.528 39.5973C33.736 39.1559 33.692 39.0897 33.956 38.7145C34.286 38.1847 35.518 38.0302 36.222 38.4055ZM32.152 38.7145C32.548 39.0235 32.548 39.0455 31.91 39.5532C31.558 39.8181 31.206 40.0609 31.14 40.0609C30.744 40.0167 29.82 39.3987 29.82 39.1559C29.82 38.4717 31.382 38.1627 32.152 38.7145ZM27.928 38.7586C28.126 38.8248 28.28 39.0014 28.28 39.1118C28.28 39.4428 27.334 40.1491 26.916 40.1712C26.476 40.1712 25.75 39.2 25.97 38.8469C26.124 38.6041 27.378 38.5379 27.928 38.7586ZM42.844 40.3478C42.976 40.4802 43.064 40.6347 42.998 40.6568C42.954 40.7009 42.58 40.9437 42.184 41.2307C41.48 41.7383 41.458 41.7383 40.776 41.341C40.402 41.1203 40.094 40.8334 40.094 40.723C40.116 40.105 42.294 39.796 42.844 40.3478ZM45.99 40.723C45.99 41.5618 45.506 41.6721 44.692 41.032C44.208 40.6568 44.164 40.5023 44.362 40.2374C44.516 40.0609 44.912 39.9505 45.308 39.9946C45.902 40.0609 45.99 40.1491 45.99 40.723ZM38.422 40.3919C39.016 40.723 38.95 40.9879 38.18 41.3852C37.344 41.8266 37.08 41.8046 36.42 41.2748C35.892 40.8334 35.87 40.8113 36.288 40.5023C36.794 40.1271 37.806 40.0609 38.422 40.3919ZM34.44 40.723C34.814 41.1645 34.528 41.4955 33.78 41.4955C33.098 41.4955 32.02 41.0762 32.02 40.8334C32.02 40.3037 34 40.1933 34.44 40.723ZM29.71 40.8334C29.644 40.9437 29.336 41.0541 29.05 41.0541C28.764 41.0541 28.456 40.9437 28.39 40.8334C28.302 40.7009 28.566 40.6127 29.05 40.6127C29.534 40.6127 29.798 40.7009 29.71 40.8334ZM44.67 42.1577C44.846 42.4446 43.988 43.2613 43.482 43.2613C42.954 43.2613 42.492 42.7095 42.668 42.2681C42.8 41.8928 44.45 41.8046 44.67 42.1577ZM34.22 42.5771C34.22 42.8419 33.362 43.1289 33.164 42.9302C33.01 42.7757 33.538 42.3784 33.956 42.3784C34.088 42.3784 34.22 42.4667 34.22 42.5771Z" fill="white"/>
<path d="M18.82 33.991C18.82 34.3 19.062 34.4766 19.766 34.6753C20.272 34.8077 20.976 35.0064 21.328 35.1167C22.186 35.3816 22.34 35.3595 22.34 35.0064C22.34 34.8298 21.878 34.5208 21.306 34.3221C20.712 34.1235 20.03 33.8586 19.744 33.7482C18.996 33.4613 18.82 33.5055 18.82 33.991Z" fill="white"/>
<path d="M19.392 35.9554C19.084 36.441 19.524 36.6396 20.91 36.6396C22.142 36.6396 22.824 36.3969 22.494 36.0658C22.252 35.823 19.524 35.7126 19.392 35.9554Z" fill="white"/>
<path d="M20.756 37.7654C19.81 38.2509 19.546 38.582 19.986 38.7586C20.426 38.9131 22.12 38.0302 22.12 37.6329C22.12 37.2136 21.768 37.2356 20.756 37.7654Z" fill="white"/>
<path d="M48.74 35.3374C48.498 35.7789 48.762 36.4189 49.158 36.4189C49.642 36.4189 50.104 35.8009 49.972 35.3595C49.774 34.7415 49.048 34.7194 48.74 35.3374Z" fill="white"/>
</svg>
