<?xml version="1.0" encoding="UTF-8" standalone="no"?>
<svg
   version="1.0"
   width="300.000000pt"
   height="222.000000pt"
   viewBox="0 0 300.000000 222.000000"
   preserveAspectRatio="xMidYMid meet"
   id="svg14"
   sodipodi:docname="arensdelledo.svg"
   inkscape:version="1.4 (e7c3feb1, 2024-10-09)"
   xmlns:inkscape="http://www.inkscape.org/namespaces/inkscape"
   xmlns:sodipodi="http://sodipodi.sourceforge.net/DTD/sodipodi-0.dtd"
   xmlns="http://www.w3.org/2000/svg"
   xmlns:svg="http://www.w3.org/2000/svg">
  <defs
     id="defs14" />
  <sodipodi:namedview
     id="namedview14"
     pagecolor="#ffffff"
     bordercolor="#000000"
     borderopacity="0.25"
     inkscape:showpageshadow="2"
     inkscape:pageopacity="0.0"
     inkscape:pagecheckerboard="0"
     inkscape:deskcolor="#d1d1d1"
     inkscape:document-units="pt"
     inkscape:zoom="2.8108108"
     inkscape:cx="192.29327"
     inkscape:cy="133.23558"
     inkscape:window-width="2560"
     inkscape:window-height="1324"
     inkscape:window-x="0"
     inkscape:window-y="25"
     inkscape:window-maximized="1"
     inkscape:current-layer="g14" />
  <metadata
     id="metadata1">
Created by potrace 1.16, written by Peter Selinger 2001-2019
</metadata>
  <g
     transform="translate(0.000000,222.000000) scale(0.100000,-0.100000)"
     fill="#000000"
     stroke="none"
     id="g14">
    <path
       d="M1290 2155 c-301 -34 -594 -139 -816 -291 -221 -151 -388 -398 -435 -642 -16 -85 -6 -268 19 -347 64 -200 188 -370 365 -504 419 -315 1034 -422 1597 -277 171 44 370 131 503 219 195 129 362 332 417 506 39 126 42 148 38 298 -4 122 -9 159 -28 213 -72 202 -205 377 -388 510 -102 75 -123 88 -230 140 -312 154 -681 216 -1042 175z m595 -91 c137 -28 320 -87 402 -130 150 -80 203 -113 294 -190 222 -184 342 -417 341 -661 -1 -217 -83 -397 -261 -572 -101 -98 -188 -159 -329 -230 -137 -69 -211 -95 -364 -131 -304 -72 -613 -72 -903 -1 -266 66 -403 129 -622 289 -183 133 -310 338 -344 554 -37 236 71 515 272 704 47 44 164 134 224 171 57 36 231 115 312 142 208 68 382 91 648 86 167 -3 222 -8 330 -31z"
       id="path1" />
    <path
       d="M1440 1915 c0 -41 -5 -85 -11 -99 -14 -29 -57 -49 -169 -76 -47 -11 -118 -34 -157 -50 -40 -17 -86 -30 -102 -30 -27 0 -196 51 -231 69 -8 4 -40 14 -70 21 -30 7 -68 17 -84 23 -26 9 -32 8 -52 -16 -26 -30 -23 -49 19 -116 13 -21 20 -48 18 -67 -2 -28 5 -40 48 -80 54 -51 60 -68 36 -100 -21 -28 -19 -87 4 -108 25 -23 56 -14 117 34 101 81 123 93 168 94 47 1 86 -23 86 -54 0 -9 9 -25 21 -36 18 -16 40 -19 163 -22 77 -2 145 -7 150 -12 4 -4 -15 -25 -43 -46 -41 -31 -48 -40 -39 -52 22 -26 107 -10 199 37 84 42 84 42 212 35 104 -5 130 -10 140 -24 34 -48 108 -36 180 30 63 58 84 67 171 76 64 7 65 6 72 -20 9 -37 24 -32 68 24 44 56 67 62 85 24 12 -27 28 -28 45 -1 7 11 4 33 -12 80 -12 36 -22 78 -22 94 0 39 -37 73 -146 135 -106 59 -163 76 -307 88 -60 6 -127 15 -150 20 -23 6 -82 14 -132 19 -83 8 -91 10 -110 37 -31 45 -135 144 -151 144 -11 0 -14 -17 -14 -75z m97 -49 c59 -57 54 -76 -18 -76 -51 0 -51 0 -45 28 4 15 7 42 6 60 0 17 2 32 5 32 3 0 26 -20 52 -44z m196 -96 c20 0 20 -1 -3 -25 -28 -30 -37 -31 -69 -6 -31 24 -19 45 21 37 17 -3 40 -6 51 -6z m-193 -29 c0 -5 -7 -14 -15 -21 -18 -15 -42 1 -31 19 8 13 46 15 46 2z m-755 -58 c77 -25 146 -51 153 -57 8 -8 14 -42 15 -86 2 -74 2 -74 -38 -93 -22 -10 -56 -33 -75 -51 -89 -83 -130 -98 -130 -48 0 15 4 32 9 37 5 6 12 24 15 41 6 27 2 35 -44 77 -27 25 -50 55 -50 65 0 11 -6 25 -14 31 -8 7 -12 20 -9 30 3 10 -3 33 -12 51 -21 40 -13 64 17 54 13 -4 86 -27 163 -51z m1233 31 c28 -8 28 -21 0 -51 -27 -29 -45 -29 -81 1 -31 25 -24 40 23 49 14 2 27 5 30 6 3 0 15 -2 28 -5z m-170 -16 c17 -17 16 -22 -19 -47 -31 -23 -31 -23 -65 -5 -19 10 -34 24 -34 32 0 27 95 43 118 20z m418 -38 c56 -28 113 -64 128 -79 24 -25 26 -32 16 -51 -10 -18 -9 -28 1 -48 12 -21 12 -26 1 -30 -8 -2 -29 -18 -48 -34 -32 -28 -38 -30 -144 -34 -128 -4 -127 -5 -155 105 -18 70 -15 106 16 176 18 40 24 45 52 45 18 0 75 -22 133 -50z m-606 25 c7 -9 11 -17 9 -18 -2 -1 -18 -12 -35 -24 -31 -21 -31 -21 -62 -1 -18 11 -32 23 -32 27 0 31 97 44 120 16z m-182 -15 c1 -9 -11 -26 -27 -38 -30 -22 -30 -22 -66 -1 -19 12 -35 22 -35 24 0 2 7 11 16 20 22 21 107 17 112 -5z m-194 -3 c18 -13 17 -15 -12 -35 -37 -27 -50 -27 -81 -3 -36 28 -22 51 32 51 24 0 51 -6 61 -13z m-216 -44 c-4 -20 -39 -25 -45 -6 -4 10 11 18 40 22 5 0 7 -7 5 -16z m880 -23 c1 -9 -11 -26 -28 -38 -30 -22 -31 -22 -60 -5 -34 20 -38 37 -12 52 26 16 96 9 100 -9z m-192 -4 c10 -8 17 -16 14 -18 -3 -2 -20 -13 -37 -26 -33 -23 -33 -23 -63 0 -35 25 -37 33 -12 47 25 15 75 13 98 -3z m-186 -11 c10 -12 7 -19 -17 -39 -35 -31 -41 -31 -77 -1 -25 20 -28 26 -17 39 17 21 94 21 111 1z m-183 -15 c2 -8 -9 -23 -23 -33 -27 -20 -55 -18 -89 6 -17 13 -17 17 -6 31 19 22 115 19 118 -4z m-191 -5 c7 -17 -32 -54 -56 -54 -24 0 -63 37 -56 54 4 11 20 15 56 15 36 0 52 -4 56 -15z m-181 -15 c3 -5 1 -10 -4 -10 -6 0 -11 5 -11 10 0 6 2 10 4 10 3 0 8 -4 11 -10z m1000 -60 c0 -38 -27 -47 -64 -21 -37 26 -39 39 -9 50 36 13 73 -2 73 -29z m-157 10 c1 -9 -11 -26 -27 -38 -29 -21 -31 -21 -60 -4 -33 18 -38 31 -19 50 18 18 102 11 106 -8z m-192 -5 c5 -12 -40 -64 -56 -64 -3 0 -18 11 -35 25 -29 24 -29 25 -11 39 26 20 95 20 102 0z m-185 -11 c11 -13 11 -17 -1 -24 -8 -5 -24 -15 -34 -23 -17 -13 -23 -12 -53 5 -38 23 -38 22 -17 42 20 21 88 21 105 0z m-377 -10 c20 -19 14 -30 -19 -38 -26 -7 -85 17 -85 33 0 24 82 28 104 5z m193 -4 c2 -8 -11 -25 -28 -37 -31 -21 -31 -21 -65 -1 -37 22 -40 28 -22 46 18 18 112 12 115 -8z m647 -46 c24 -9 19 -28 -14 -53 -30 -21 -31 -21 -60 -4 -32 19 -37 32 -18 51 13 13 66 16 92 6z m-179 -29 c0 -10 -12 -26 -27 -34 -23 -13 -30 -13 -53 -1 -58 31 -39 62 35 58 37 -3 45 -6 45 -23z m295 -6 c0 -11 -11 -11 -29 0 -7 5 -10 14 -6 20 5 9 10 9 21 0 8 -6 14 -15 14 -20z m-660 -9 c0 -18 -61 -41 -91 -35 -35 8 -45 21 -29 40 22 26 120 22 120 -5z m180 15 c7 -9 11 -17 9 -18 -26 -19 -61 -37 -70 -37 -6 0 -24 9 -40 21 -24 17 -27 24 -18 35 16 19 103 19 119 -1z m-396 -5 c38 -14 33 -38 -9 -46 -41 -7 -63 -1 -72 22 -11 30 33 43 81 24z m842 -65 c2 -5 -3 -18 -11 -29 -11 -15 -21 -17 -49 -12 -39 7 -47 28 -18 45 21 13 74 10 78 -4z m-166 -10 c0 -11 -12 -15 -50 -15 -46 0 -60 7 -43 23 3 4 26 7 50 7 32 0 43 -4 43 -15z m-360 -39 c0 -14 -66 -43 -76 -34 -2 3 5 14 16 26 23 25 60 29 60 8z"
       id="path2" />
    <path
       d="M700 1647 c0 -7 27 -20 64 -30 73 -19 116 -22 116 -7 0 12 -26 23 -93 39 -62 14 -87 14 -87 -2z"
       id="path3" />
    <path
       d="M752 1552 c3 -14 15 -17 68 -17 50 0 65 3 65 14 0 11 -17 16 -68 18 -60 2 -68 0 -65 -15z"
       id="path4" />
    <path
       d="M828 1477 c-45 -19 -60 -39 -39 -51 10 -7 87 29 96 45 15 23 -12 25 -57 6z"
       id="path5" />
    <path
       d="M2166 1628 c-15 -21 -14 -24 3 -42 17 -16 23 -17 35 -6 19 15 21 41 4 58 -17 17 -25 15 -42 -10z"
       id="path6" />
    <path
       d="M1505 948 c4 -18 11 -37 16 -42 13 -15 11 -50 -5 -82 -16 -30 -44 -42 -176 -73 -132 -31 -154 -37 -178 -50 -27 -14 -105 -16 -147 -3 -16 6 -78 31 -137 56 -181 78 -230 60 -189 -69 10 -34 17 -73 14 -87 -4 -21 4 -36 38 -73 43 -47 43 -47 25 -78 -67 -115 -8 -169 100 -93 98 69 134 88 170 88 42 0 70 -22 78 -63 9 -45 53 -59 175 -56 128 3 139 -7 71 -59 -27 -21 -49 -43 -47 -49 10 -31 149 -3 232 47 22 13 49 18 100 17 101 -1 188 -14 193 -27 18 -56 90 -51 171 12 29 22 61 46 70 53 9 6 49 15 90 19 74 7 74 7 67 -20 -10 -41 23 -33 73 18 24 25 54 47 65 50 12 3 37 28 55 56 26 40 30 54 21 65 -6 8 -9 18 -6 23 12 20 -106 141 -137 142 -5 0 -21 8 -35 18 -38 26 -106 49 -182 62 -36 6 -112 20 -170 32 -58 11 -131 24 -163 27 -56 7 -77 20 -77 49 0 50 -89 122 -150 122 -30 0 -31 -1 -25 -32z m95 -43 c0 -8 -6 -15 -14 -15 -18 0 -39 27 -31 40 9 14 45 -6 45 -25z m40 -60 c4 -40 0 -45 -35 -45 -49 0 -56 24 -19 60 31 30 50 25 54 -15z m208 -90 c38 -8 39 -11 10 -36 -29 -24 -40 -24 -72 2 -21 17 -24 24 -15 35 7 8 19 12 28 10 9 -2 31 -7 49 -11z m-1030 -21 c69 -23 161 -61 202 -83 12 -6 14 -23 11 -72 -4 -72 -14 -99 -38 -99 -17 0 -61 -27 -141 -87 -72 -55 -98 -40 -57 32 31 52 28 68 -20 118 -30 31 -35 43 -35 82 0 25 -7 60 -16 76 -16 32 -13 59 6 59 7 0 46 -12 88 -26z m882 13 c0 -13 -52 -57 -68 -57 -5 0 -19 11 -32 26 -21 21 -22 27 -10 34 24 15 110 12 110 -3z m-192 -18 c4 -22 -54 -46 -76 -32 -27 17 -24 30 10 41 43 13 62 11 66 -9z m761 -82 c90 -51 141 -99 141 -132 0 -64 -78 -131 -156 -135 -158 -7 -157 -7 -171 20 -18 36 -16 169 3 215 30 73 44 87 78 81 17 -4 64 -25 105 -49z m-305 33 c34 -12 33 -21 -5 -49 -31 -23 -31 -23 -65 -5 -38 21 -43 38 -16 53 22 13 54 14 86 1z m-174 -15 c7 -9 11 -17 9 -18 -2 -2 -17 -13 -32 -24 -28 -22 -28 -22 -63 -1 -36 21 -36 34 0 48 33 14 72 11 86 -5z m-181 -9 c10 -12 5 -19 -24 -39 -35 -24 -38 -24 -66 -9 -31 18 -36 31 -17 50 17 17 93 15 107 -2z m-200 -5 c19 -12 7 -39 -22 -52 -32 -14 -104 25 -86 47 13 16 86 19 108 5z m-180 -14 c8 -10 3 -19 -21 -37 -31 -23 -32 -23 -65 -5 -32 17 -41 34 -26 48 12 13 100 7 112 -6z m799 -69 c-4 -39 -16 -43 -48 -18 -24 20 -25 21 -6 35 11 8 28 15 39 15 15 0 18 -6 15 -32z m-138 7 c7 -9 11 -17 9 -18 -2 -1 -19 -12 -36 -25 -33 -23 -33 -23 -63 0 -16 12 -30 25 -30 29 0 28 99 39 120 14z m-389 -5 c10 -6 19 -15 19 -21 0 -14 -41 -48 -58 -49 -21 0 -73 40 -66 51 15 25 74 35 105 19z m193 4 c26 -10 19 -28 -18 -48 -35 -18 -42 -17 -95 21 -2 1 2 9 9 18 13 15 74 21 104 9z m-380 -10 c9 -3 16 -11 16 -17 0 -13 -40 -57 -53 -57 -14 0 -67 40 -67 51 0 20 70 36 104 23z m-174 -19 c14 -16 6 -35 -16 -35 -8 0 -14 -4 -14 -10 0 -5 -9 -10 -20 -10 -20 0 -26 22 -14 54 8 20 48 21 64 1z m650 -63 c21 -17 21 -17 -11 -41 -32 -24 -33 -24 -66 -6 -18 10 -33 21 -33 25 0 16 37 35 76 39 7 0 22 -7 34 -17z m196 3 c7 -17 -32 -54 -56 -54 -24 0 -63 37 -56 54 4 11 20 15 56 15 36 0 52 -4 56 -15z m-385 -5 c26 -14 24 -22 -12 -49 -31 -23 -31 -23 -65 -5 -36 20 -38 23 -26 40 15 24 71 31 103 14z m-185 -14 c18 -14 18 -15 -11 -38 -16 -12 -32 -23 -35 -23 -18 2 -60 30 -60 41 0 31 71 45 106 20z m-192 -2 c9 -3 16 -11 16 -16 0 -15 -43 -47 -62 -48 -20 0 -53 44 -43 60 7 11 64 14 89 4z m678 -72 c6 -6 10 -13 7 -14 -2 -2 -19 -13 -37 -26 -32 -23 -33 -23 -64 -5 -17 10 -31 23 -31 28 1 28 100 42 125 17z m143 -17 c0 -38 -22 -43 -59 -14 -22 17 -24 24 -15 36 7 8 25 13 43 11 27 -3 31 -7 31 -33z m-344 15 c27 -15 24 -27 -11 -45 -38 -20 -50 -19 -80 5 -24 20 -25 21 -6 35 23 17 69 20 97 5z m-181 -15 c17 -20 4 -35 -30 -35 -31 0 -80 19 -80 30 0 24 90 29 110 5z m-215 -5 c-3 -5 -17 -10 -30 -10 -13 0 -27 5 -30 10 -4 6 8 10 30 10 22 0 34 -4 30 -10z m680 -60 c8 -13 -31 -50 -54 -50 -24 0 -45 25 -37 45 6 17 81 21 91 5z m-475 -19 c0 -12 -39 -25 -48 -16 -7 7 17 25 36 25 6 0 12 -4 12 -9z"
       id="path8" />
    <path
       d="M810 680 c0 -14 11 -22 43 -31 23 -6 55 -15 71 -20 39 -12 46 -11 46 5 0 8 -21 22 -47 31 -27 9 -58 21 -71 26 -34 13 -42 11 -42 -11z"
       id="path9" />
    <path
       d="M836 591 c-14 -22 6 -31 69 -31 56 0 87 11 72 26 -11 11 -135 16 -141 5z"
       id="path10" />
    <path
       d="M898 509 c-43 -22 -55 -37 -35 -45 20 -7 97 33 97 51 0 19 -16 18 -62 -6z"
       id="path11" />
    <path
       d="M2170 619 c-11 -20 1 -49 19 -49 22 0 43 28 37 48 -9 28 -42 29 -56 1z"
       id="path12" />
  </g>
</svg>
