<?xml version="1.0" encoding="utf-8"?>
<!-- Generator: Adobe Illustrator 26.5.0, SVG Export Plug-In . SVG Version: 6.00 Build 0)  -->
<svg version="1.1" id="Capa_1" xmlns="http://www.w3.org/2000/svg" xmlns:xlink="http://www.w3.org/1999/xlink" x="0px" y="0px" width="76.2" height="23.3"
	 viewBox="0 0 76.2 23.3" style="enable-background:new 0 0 76.2 23.3;" xml:space="preserve">
<style type="text/css">
	.st0{fill-rule:evenodd;clip-rule:evenodd;fill:white;}
	.st1{fill:white;}
</style>
<g id="Grupo_1" transform="translate(-106.354 -361.929)">
	<path id="Trazado_1" class="st0" d="M106.4,383.8l1.1-2.8c0.7,0.5,1.4,0.8,2.1,1.1c0.7,0.3,1.5,0.4,2.3,0.4c1.1,0.1,2.1-0.3,2.9-1
		c0.7-0.6,1.1-1.5,1.1-2.5c0-0.7-0.2-1.5-0.6-2.1c-0.8-1-1.9-1.7-3-2.1l-1.8-0.8c-1.3-0.5-2.4-1.4-3.2-2.5c-0.6-1.1-0.9-2.3-0.9-3.5
		c0-1.6,0.6-3.1,1.8-4.2c1.3-1.1,2.9-1.7,4.6-1.7c2.5,0,4.2,0.4,5.2,1.2l-0.9,2.7c-0.6-0.4-1.2-0.7-1.9-0.9
		c-0.8-0.3-1.5-0.4-2.3-0.4c-0.9,0-1.8,0.3-2.5,0.9c-0.6,0.6-0.9,1.4-0.9,2.3c0,0.5,0.1,1.1,0.3,1.6c0.2,0.5,0.5,0.9,0.9,1.2
		c0.7,0.5,1.5,1,2.4,1.3l1.8,0.9c1.3,0.5,2.4,1.4,3.2,2.6c0.7,1.2,1,2.5,0.9,3.8c0,1.7-0.7,3.3-2,4.3c-1.5,1.2-3.5,1.9-5.4,1.8
		C109.7,385.2,107.9,384.7,106.4,383.8z"/>
	<path id="Trazado_2" class="st0" d="M136.6,384.8l-1.6-4.7h-8.4l-1.7,4.7h-3.4l9.1-22.8h0.8l8.5,22.8H136.6z M131,367.9l-3.5,9.9
		h6.7L131,367.9z"/>
	<rect id="Rectángulo_3" x="144.2" y="362.3" class="st1" width="3.1" height="22.5"/>
	<path id="Trazado_3" class="st0" d="M166.6,384.8v-10.9h-9.8v10.9h-3.1v-22.5h3.1v9h9.8v-9h3.1v22.5L166.6,384.8z"/>
	<path id="Trazado_4" class="st1" d="M179.3,367.9c1.6,0.1,2.9-1.1,3-2.7s-1.1-2.9-2.7-3s-2.9,1.1-3,2.7c0,0.1,0,0.1,0,0.2
		c-0.2,1.4,0.8,2.6,2.2,2.8C179,367.9,179.1,367.9,179.3,367.9 M177.9,365c0-0.5,0.5-0.8,1.3-0.8c0.9,0,1.3,0.3,1.3,0.9
		c0,0.5-0.4,0.9-1.3,0.9C178.6,365.9,177.9,365.7,177.9,365 M181.7,371.8v-2H180c-1.1,0-1.4-0.4-1.4-1.2c0-0.1,0-0.3,0.1-0.4h-2
		c0,0.1,0,0.2,0,0.3c0,0.7,0.4,1.4,1.1,1.5v0h-1v1.8L181.7,371.8z M180.4,375.4c0,0.6-0.7,0.8-1.2,0.8c-0.5,0-1.1-0.2-1.1-0.8
		c0-0.6,0.6-0.8,1.1-0.8S180.4,374.7,180.4,375.4 M174.9,376.2v2h6.8v-1.8H181v0c0.6-0.3,0.9-0.9,0.8-1.5c0-1.6-1.2-2.2-2.7-2.2
		c-1.3-0.2-2.4,0.8-2.6,2c0,0,0,0.1,0,0.1c0,0.6,0.2,1.1,0.6,1.4L174.9,376.2z M181.7,379h-1.6v3.5h-1.1v-2.8h-1.6v2.8h-1v-3.3h-1.6
		v5.6h6.8L181.7,379z"/>
</g>
</svg>
